<svg width="69" height="69" viewBox="0 0 69 69" fill="none" xmlns="http://www.w3.org/2000/svg">
<g clip-path="url(#clip0_302_2917)">
<ellipse opacity="0.25" cx="34.5" cy="34.5" rx="34" ry="34.5" fill="#5BA9FF" fill-opacity="0.57"/>
<path d="M33.45 32.4C33.8 32.4 34.15 32.4 34.5 32.225L39.75 29.6C40.275 29.25 40.8 28.725 40.8 28.025V22.25C40.8 21.2 40.1 20.5 39.05 20.5H28.375C27.325 20.5 26.625 21.2 26.625 22.25V28.2C26.625 28.55 26.8 29.075 27.15 29.425L28.725 30.3L31.7 31.875L33.45 32.4Z" fill="#0D519D" stroke="#0D519D" stroke-miterlimit="10"/>
<path d="M26.4502 26.975L32.7502 20.5M38.5252 20.325L28.7252 30.125M40.8002 23.825L32.7502 31.875" stroke="#0D519D" stroke-miterlimit="10"/>
<path d="M31.8754 32.75V34.675C28.9004 35.725 27.1504 38 27.1504 41.5C27.1504 45.35 30.4754 48.5 34.3254 48.5C38.1754 48.5 41.5004 45.35 41.5004 41.5C41.5004 41.15 41.5004 40.625 41.1504 40.45C40.1004 43.075 37.6504 45 34.6754 45C32.7504 45 31.1754 43.425 31.1754 41.5C31.1754 39.575 32.2254 38 34.3254 38C35.3754 38 35.7254 37.3 35.7254 36.25V32.75" stroke="#0D519D" stroke-miterlimit="10" stroke-linecap="round" stroke-linejoin="round"/>
</g>
<defs>
<clipPath id="clip0_302_2917">
<rect width="68" height="69" fill="white" transform="translate(0.5)"/>
</clipPath>
</defs>
</svg>
