<svg width="69" height="69" viewBox="0 0 69 69" fill="none" xmlns="http://www.w3.org/2000/svg">
<g clip-path="url(#clip0_302_2927)">
<ellipse opacity="0.25" cx="34.5" cy="34.5" rx="34" ry="34.5" fill="#5BA9FF" fill-opacity="0.57"/>
<path d="M41.1797 48.51L42.0175 46.8342H40.3418L41.1797 48.51Z" fill="#0D519D"/>
<path d="M34.5 27.4054C34.4592 27.4047 34.4186 27.4006 34.3786 27.3932L23.5713 25.1589V32.8697C23.5713 34.594 28.0581 36.5126 34.5 36.5126C40.9418 36.5126 45.4287 34.594 45.4287 32.8697V25.1589L34.6214 27.3932C34.5813 27.4006 34.5407 27.4047 34.5 27.4054ZM24.7856 37.1198H27.2142V38.3341H24.7856V41.3698H25.9999V42.5841H24.7856V45.6199H27.2142V46.8342H24.7856V49.2628H29.0356V37.2291C27.5624 36.9731 26.132 36.5133 24.7856 35.863V37.1198Z" fill="#0D519D"/>
<path d="M34.5002 17.7153L17.5 22.4025V22.6636L34.5002 26.179L49.0718 23.1615V22.5482H50.2861V22.9125L51.5004 22.6636V22.4025L34.5002 17.7153Z" fill="#0D519D"/>
<path d="M39.9648 45.62H42.3934V36.6099C41.5984 36.8698 40.7871 37.0767 39.9648 37.2292V45.62ZM40.5719 37.727H41.7862V44.4057H40.5719V37.727ZM33.2861 47.7996L33.4622 47.6175C33.5768 47.5037 33.7318 47.4399 33.8933 47.4399C34.0548 47.4399 34.2097 47.5037 34.3244 47.6175L34.5004 47.7996L34.6765 47.6175C34.7911 47.5037 34.9461 47.4399 35.1076 47.4399C35.2691 47.4399 35.424 47.5037 35.5387 47.6175L35.7147 47.7996V41.9771H33.2861V47.7996ZM33.2861 37.7027V38.9413H35.7147V37.7027C35.3079 37.7209 34.9072 37.727 34.5004 37.727C34.0936 37.727 33.6929 37.7209 33.2861 37.7027Z" fill="#0D519D"/>
<path d="M35.7147 40.1555H33.2861V40.7627H35.7147V40.1555Z" fill="#0D519D"/>
<path d="M34.9315 49.0867C34.8169 49.2004 34.6619 49.2643 34.5004 49.2643C34.3389 49.2643 34.184 49.2004 34.0694 49.0867L33.8933 48.9045L33.2861 49.5117V49.6696L34.5004 51.2846L35.7147 49.6696V49.5117L35.1076 48.9045L34.9315 49.0867ZM50.2863 27.4843V24.3696H49.072V27.4843C49.2698 27.4301 49.4741 27.4035 49.6792 27.4054C49.8842 27.4039 50.0885 27.4305 50.2863 27.4843ZM49.6792 28.0125C49.3574 28.0135 49.0491 28.1417 48.8216 28.3692C48.5941 28.5968 48.4658 28.9051 48.4649 29.2268V31.6554H50.8935V29.2268C50.8911 28.9055 50.7624 28.598 50.5352 28.3708C50.308 28.1436 50.0005 28.0149 49.6792 28.0125Z" fill="#0D519D"/>
</g>
<defs>
<clipPath id="clip0_302_2927">
<rect width="68" height="69" fill="white" transform="translate(0.5)"/>
</clipPath>
</defs>
</svg>
