<svg width="69" height="69" viewBox="0 0 69 69" fill="none" xmlns="http://www.w3.org/2000/svg">
<g clip-path="url(#clip0_302_2946)">
<ellipse opacity="0.25" cx="34.5" cy="34.5" rx="34" ry="34.5" fill="#5BA9FF" fill-opacity="0.57"/>
<path d="M19.1881 40.5562H21.6453C21.771 40.5563 21.8932 40.5145 21.9925 40.4375C22.0918 40.3605 22.1627 40.2526 22.1939 40.1308C22.3226 39.6347 22.5207 39.1592 22.7825 38.7186C22.8466 38.6105 22.8728 38.4841 22.8571 38.3595C22.8413 38.2348 22.7845 38.1189 22.6956 38.0302L20.9577 36.2922C20.94 36.2749 20.9259 36.2541 20.9162 36.2312C20.9066 36.2083 20.9017 36.1837 20.9017 36.1589C20.9017 36.134 20.9066 36.1094 20.9162 36.0865C20.9259 36.0636 20.94 36.0429 20.9577 36.0255L22.0231 34.9593C22.0585 34.924 22.1065 34.9042 22.1565 34.9042C22.2065 34.9042 22.2544 34.924 22.2898 34.9593L24.0277 36.6973C24.1166 36.7861 24.2326 36.8429 24.3574 36.8587C24.4821 36.8744 24.6086 36.8482 24.7168 36.7842C25.1575 36.5232 25.6329 36.326 26.129 36.1986C26.2507 36.1671 26.3586 36.096 26.4356 35.9966C26.5126 35.8972 26.5544 35.775 26.5544 35.6492V33.1889C26.5546 33.1389 26.5745 33.0909 26.6099 33.0555C26.6453 33.0202 26.6932 33.0002 26.7433 33H28.2545C28.3045 33.0002 28.3524 33.0202 28.3878 33.0555C28.4232 33.0909 28.4432 33.1389 28.4434 33.1889V35.6462C28.4432 35.772 28.485 35.8942 28.562 35.9937C28.639 36.0932 28.7469 36.1642 28.8687 36.1955C29.3647 36.3233 29.8401 36.5204 30.2809 36.7811C30.3891 36.8451 30.5154 36.8713 30.64 36.8555C30.7646 36.8398 30.8805 36.7831 30.9693 36.6942L32.7071 34.9563C32.7426 34.921 32.7905 34.9012 32.8405 34.9012C32.8905 34.9012 32.9385 34.921 32.9739 34.9563L34.0408 36.0248C34.0761 36.0602 34.0959 36.1081 34.0959 36.1581C34.0959 36.2081 34.0761 36.2561 34.0408 36.2915L32.3029 38.0294C32.2141 38.1183 32.1573 38.2341 32.1416 38.3587C32.1259 38.4834 32.152 38.6097 32.216 38.7178C32.4767 39.1586 32.6738 39.6341 32.8016 40.1301C32.833 40.2519 32.904 40.3598 33.0034 40.4368C33.1029 40.5138 33.2251 40.5556 33.3509 40.5555H35.8111C35.8611 40.5557 35.9091 40.5756 35.9445 40.611C35.9798 40.6464 35.9998 40.6943 36 40.7444V42.2556C35.9998 42.3057 35.9798 42.3536 35.9445 42.389C35.9091 42.4244 35.8611 42.4443 35.8111 42.4445H33.3539C33.2281 42.4446 33.1058 42.4865 33.0064 42.5636C32.9069 42.6408 32.836 42.7488 32.8046 42.8707C32.677 43.3665 32.4799 43.8417 32.219 44.2822C32.155 44.3904 32.1288 44.5169 32.1445 44.6416C32.1603 44.7664 32.217 44.8824 32.3059 44.9713L34.0438 46.7093C34.0791 46.7447 34.0989 46.7926 34.0989 46.8426C34.0989 46.8926 34.0791 46.9406 34.0438 46.976L32.9746 48.0444C32.9572 48.0622 32.9365 48.0763 32.9136 48.0859C32.8907 48.0956 32.8661 48.1005 32.8413 48.1005C32.8164 48.1005 32.7918 48.0956 32.7689 48.0859C32.746 48.0763 32.7253 48.0622 32.7079 48.0444L30.97 46.3065C30.9176 46.2537 30.8552 46.2119 30.7864 46.1834C30.7177 46.1548 30.644 46.1402 30.5696 46.1403C30.4682 46.14 30.3686 46.1675 30.2817 46.2196C29.8409 46.4803 29.3655 46.6775 28.8695 46.8052C28.7478 46.8364 28.6398 46.9073 28.5628 47.0066C28.4858 47.106 28.444 47.2281 28.4441 47.3538V49.8111C28.4441 49.8612 28.4242 49.9092 28.3888 49.9447C28.3534 49.9801 28.3053 50 28.2552 50H26.744C26.6939 50 26.6459 49.9801 26.6105 49.9447C26.575 49.9092 26.5551 49.8612 26.5551 49.8111V47.3553C26.5551 47.2297 26.5133 47.1076 26.4363 47.0083C26.3593 46.909 26.2514 46.8381 26.1297 46.8067C25.6335 46.6783 25.1581 46.4801 24.7175 46.2181C24.6094 46.154 24.4829 46.1277 24.3581 46.1434C24.2333 46.1591 24.1173 46.216 24.0284 46.305L22.2906 48.0429C22.2732 48.0606 22.2525 48.0746 22.2297 48.0842C22.2069 48.0938 22.1824 48.0988 22.1576 48.0989C22.1075 48.0988 22.0595 48.079 22.0239 48.0437L20.9555 46.9745C20.9377 46.9571 20.9236 46.9364 20.914 46.9135C20.9044 46.8906 20.8994 46.866 20.8994 46.8411C20.8994 46.8163 20.9044 46.7917 20.914 46.7688C20.9236 46.7459 20.9377 46.7251 20.9555 46.7078L22.6933 44.9698C22.7823 44.8809 22.8392 44.7649 22.8549 44.6402C22.8706 44.5154 22.8444 44.3889 22.7802 44.2807C22.5194 43.8402 22.3222 43.365 22.1946 42.8692C22.1634 42.7474 22.0926 42.6394 21.9933 42.5622C21.894 42.485 21.7718 42.4431 21.6461 42.443H19.1889C19.1388 42.443 19.0908 42.4231 19.0553 42.3877C19.0199 42.3523 19 42.3042 19 42.2541V40.7429C19.0008 40.6934 19.0209 40.6461 19.0561 40.6112C19.0912 40.5764 19.1386 40.5566 19.1881 40.5562ZM27.4996 45.09C28.2095 45.09 28.9034 44.8795 29.4936 44.4851C30.0838 44.0907 30.5438 43.5301 30.8155 42.8743C31.0871 42.2184 31.1582 41.4968 31.0197 40.8005C30.8812 40.1043 30.5394 39.4648 30.0375 38.9628C29.5355 38.4608 28.896 38.119 28.1998 37.9805C27.5036 37.842 26.782 37.9131 26.1262 38.1848C25.4703 38.4564 24.9098 38.9165 24.5154 39.5067C24.1211 40.0969 23.9106 40.7909 23.9106 41.5008C23.9116 42.4524 24.29 43.3647 24.9629 44.0376C25.6357 44.7105 26.5481 45.089 27.4996 45.09Z" fill="#0D519D"/>
<path d="M27.5 44C26.1193 44 25 42.8807 25 41.5C25 40.1193 26.1193 39 27.5 39C28.8807 39 30 40.1193 30 41.5C30 42.8807 28.8807 44 27.5 44Z" fill="#0D519D"/>
<path d="M19.3645 33.3645C23.8505 28.8785 31.1497 28.8785 35.6358 33.3645C40.1218 37.8506 40.121 45.1491 35.6358 49.6352C33.4765 51.7899 30.5506 53 27.5001 53C24.4497 53 21.5238 51.7899 19.3645 49.6352C14.8785 45.1491 14.8785 37.8499 19.3645 33.3645ZM19.4646 43.5084H21.4304C21.5282 43.8043 21.6476 44.0927 21.7876 44.3711L20.3996 45.7591C20.2808 45.8778 20.1866 46.0187 20.1223 46.1738C20.058 46.3289 20.0249 46.4952 20.0249 46.6631C20.0249 46.831 20.058 46.9973 20.1223 47.1524C20.1866 47.3075 20.2808 47.4485 20.3996 47.5671L21.4304 48.6022C21.549 48.7211 21.69 48.8153 21.8451 48.8796C22.0002 48.9439 22.1665 48.977 22.3344 48.977C22.5023 48.977 22.6686 48.9439 22.8237 48.8796C22.9788 48.8153 23.1197 48.7211 23.2384 48.6022L24.6263 47.2143C24.9045 47.3544 25.1926 47.4738 25.4883 47.5715V49.5373C25.4887 49.8762 25.6235 50.2012 25.8632 50.4408C26.1028 50.6805 26.4278 50.8153 26.7667 50.8157H28.2277C28.5666 50.8153 28.8916 50.6805 29.1312 50.4408C29.3709 50.2012 29.5057 49.8762 29.5061 49.5373V47.5693C29.8017 47.4713 30.0898 47.3519 30.3681 47.2121L31.7561 48.6001C31.8747 48.7189 32.0156 48.8131 32.1707 48.8774C32.3259 48.9417 32.4921 48.9748 32.6601 48.9748C32.828 48.9748 32.9942 48.9417 33.1494 48.8774C33.3045 48.8131 33.4454 48.7189 33.564 48.6001L34.597 47.5671C34.7158 47.4485 34.81 47.3075 34.8744 47.1524C34.9387 46.9973 34.9718 46.831 34.9718 46.6631C34.9718 46.4952 34.9387 46.3289 34.8744 46.1738C34.81 46.0187 34.7158 45.8778 34.597 45.7591L33.209 44.3711C33.3493 44.0928 33.4687 43.8044 33.5662 43.5084H35.5357C35.8746 43.508 36.1995 43.3732 36.4392 43.1335C36.6789 42.8939 36.8137 42.5689 36.8141 42.23V40.769C36.8137 40.4301 36.6789 40.1051 36.4392 39.8655C36.1995 39.6258 35.8746 39.491 35.5357 39.4906H33.5692C33.4715 39.1949 33.3521 38.9067 33.2119 38.6286L34.5999 37.2406C34.7187 37.122 34.813 36.981 34.8773 36.8259C34.9416 36.6708 34.9747 36.5045 34.9747 36.3366C34.9747 36.1687 34.9416 36.0024 34.8773 35.8473C34.813 35.6922 34.7187 35.5513 34.5999 35.4326L33.567 34.3997C33.4483 34.2809 33.3074 34.1866 33.1523 34.1223C32.9972 34.058 32.8309 34.0249 32.663 34.0249C32.4951 34.0249 32.3288 34.058 32.1737 34.1223C32.0186 34.1866 31.8776 34.2809 31.759 34.3997L30.371 35.7876C30.0929 35.6475 29.8048 35.5281 29.509 35.4304V33.4639C29.5086 33.125 29.3738 32.8 29.1342 32.5604C28.8945 32.3207 28.5696 32.1859 28.2306 32.1855H26.7696C26.4307 32.1859 26.1058 32.3207 25.8661 32.5604C25.6265 32.8 25.4916 33.125 25.4913 33.4639V35.4304C25.1954 35.5278 24.9073 35.6472 24.6293 35.7876L23.2413 34.3997C23.1226 34.2809 22.9817 34.1866 22.8266 34.1223C22.6715 34.058 22.5052 34.0249 22.3373 34.0249C22.1694 34.0249 22.0031 34.058 21.848 34.1223C21.6929 34.1866 21.552 34.2809 21.4333 34.3997L20.4004 35.4326C20.2816 35.5513 20.1873 35.6922 20.123 35.8473C20.0587 36.0024 20.0256 36.1687 20.0256 36.3366C20.0256 36.5045 20.0587 36.6708 20.123 36.8259C20.1873 36.981 20.2816 37.122 20.4004 37.2406L21.7883 38.6286C21.6485 38.9069 21.5291 39.195 21.4311 39.4906H19.4653C19.1264 39.491 18.8015 39.6258 18.5618 39.8655C18.3221 40.1051 18.1873 40.4301 18.1869 40.769V42.23C18.1873 42.5688 18.322 42.8936 18.5615 43.1333C18.801 43.3729 19.1258 43.5078 19.4646 43.5084Z" fill="#0D519D"/>
<path d="M33.8328 24.6463L29.0033 28.644C28.4833 28.5824 27.9602 28.5514 27.4367 28.5513C26.6192 28.551 25.8034 28.6267 25 28.7775L34.3874 21C33.9951 22.1747 33.8075 23.4081 33.8328 24.6463ZM40.3557 39.9954L44.359 35.1679H44.5786C45.7413 35.1695 46.8967 34.9833 48 34.6166L40.2199 44C40.4701 42.68 40.5159 41.3294 40.3557 39.9954Z" fill="#0D519D"/>
<path d="M36.7907 32.2258C35.2344 30.6732 34.2646 28.6289 34.0468 26.4413C33.8289 24.2538 34.3765 22.0584 35.5962 20.2294C36.8158 18.4004 38.6321 17.051 40.7353 16.4112C42.8385 15.7714 45.0985 15.8809 47.13 16.7209C49.1616 17.5609 50.8389 19.0795 51.8761 21.0178C52.9134 22.9561 53.2462 25.1941 52.818 27.3504C52.3898 29.5067 51.2271 31.4477 49.5279 32.8426C47.8288 34.2375 45.6985 35 43.5001 35C40.9846 35 38.5717 34.0023 36.7907 32.2258ZM45.1745 31.6557V30.253C45.3416 30.1942 45.5053 30.1261 45.6649 30.0491L46.6583 31.0418C46.8677 31.2511 47.1515 31.3686 47.4475 31.3686C47.7435 31.3686 48.0274 31.2511 48.2367 31.0418L49.0255 30.2522C49.2348 30.0429 49.3524 29.759 49.3524 29.463C49.3524 29.1671 49.2348 28.8832 49.0255 28.6739L48.0328 27.6811C48.1095 27.5215 48.1776 27.3578 48.2367 27.1907H49.6395C49.9355 27.1907 50.2194 27.0731 50.4288 26.8638C50.6381 26.6545 50.7557 26.3705 50.7557 26.0745V24.9583C50.7557 24.6622 50.6381 24.3783 50.4288 24.1689C50.2194 23.9596 49.9355 23.842 49.6395 23.842H48.2367C48.1776 23.675 48.1095 23.5113 48.0328 23.3516L49.0255 22.3581C49.2348 22.1488 49.3524 21.8649 49.3524 21.569C49.3524 21.273 49.2348 20.9891 49.0255 20.7798L48.236 19.991C48.0266 19.7817 47.7428 19.6641 47.4468 19.6641C47.1508 19.6641 46.8669 19.7817 46.6576 19.991L45.6649 20.9837C45.5052 20.907 45.3415 20.8389 45.1745 20.7798V19.377C45.1745 19.081 45.0569 18.7971 44.8475 18.5877C44.6382 18.3784 44.3543 18.2608 44.0582 18.2608H42.942C42.646 18.2608 42.362 18.3784 42.1527 18.5877C41.9434 18.7971 41.8258 19.081 41.8258 19.377V20.7798C41.6587 20.8389 41.495 20.907 41.3354 20.9837L40.3426 19.991C40.1333 19.7817 39.8494 19.6641 39.5535 19.6641C39.2575 19.6641 38.9736 19.7817 38.7643 19.991L37.9747 20.7805C37.7654 20.9898 37.6479 21.2737 37.6479 21.5697C37.6479 21.8657 37.7654 22.1496 37.9747 22.3589L38.9674 23.3516C38.8904 23.5111 38.8223 23.6749 38.7635 23.842H37.3608C37.0647 23.842 36.7808 23.9596 36.5715 24.1689C36.3621 24.3783 36.2445 24.6622 36.2445 24.9583V26.0745C36.2445 26.3705 36.3621 26.6545 36.5715 26.8638C36.7808 27.0731 37.0647 27.1907 37.3608 27.1907H38.7635C38.8223 27.3579 38.8904 27.5216 38.9674 27.6811L37.9747 28.6739C37.7654 28.8832 37.6479 29.1671 37.6479 29.463C37.6479 29.759 37.7654 30.0429 37.9747 30.2522L38.7643 31.0418C38.9736 31.2511 39.2575 31.3686 39.5535 31.3686C39.8494 31.3686 40.1333 31.2511 40.3426 31.0418L41.3354 30.0491C41.4949 30.1261 41.6586 30.1942 41.8258 30.253V31.6557C41.8258 31.9518 41.9434 32.2357 42.1527 32.445C42.362 32.6544 42.646 32.772 42.942 32.772H44.0582C44.3543 32.772 44.6382 32.6544 44.8475 32.445C45.0569 32.2357 45.1745 31.9518 45.1745 31.6557Z" fill="#0D519D"/>
<path d="M43.5 27C42.6716 27 42 26.3284 42 25.5C42 24.6716 42.6716 24 43.5 24C44.3284 24 45 24.6716 45 25.5C45 26.3284 44.3284 27 43.5 27Z" fill="#0D519D"/>
<path d="M43.4545 31V29.2262C43.4545 29.1052 43.4142 28.9877 43.3401 28.8921C43.266 28.7966 43.1622 28.7283 43.0451 28.6982C42.6998 28.6087 42.3688 28.4711 42.0618 28.2895C41.9577 28.2278 41.8359 28.2026 41.7159 28.2177C41.5958 28.2329 41.4842 28.2875 41.3985 28.3731L40.1433 29.6284L39.3716 28.8567L40.6269 27.6015C40.7125 27.5158 40.7671 27.4042 40.7823 27.2841C40.7974 27.1641 40.7722 27.0423 40.7105 26.9382C40.5289 26.6312 40.3913 26.3002 40.3018 25.9549C40.2717 25.8378 40.2034 25.734 40.1079 25.6599C40.0123 25.5858 39.8948 25.5455 39.7738 25.5455H38V24.4545H39.7738C39.8948 24.4545 40.0123 24.4142 40.1079 24.3401C40.2034 24.266 40.2717 24.1622 40.3018 24.0451C40.3913 23.6998 40.5289 23.3688 40.7105 23.0618C40.7722 22.9576 40.7974 22.8359 40.7823 22.7159C40.7671 22.5958 40.7125 22.4842 40.6269 22.3985L39.3716 21.1433L40.1433 20.3716L41.3985 21.6269C41.4841 21.7126 41.5957 21.7673 41.7158 21.7824C41.836 21.7976 41.9577 21.7723 42.0618 21.7105C42.3688 21.5289 42.6998 21.3913 43.0451 21.3018C43.1622 21.2717 43.266 21.2034 43.3401 21.1078C43.4142 21.0123 43.4545 20.8948 43.4545 20.7738V19H44.5455V20.7738C44.5455 20.8948 44.5858 21.0123 44.6599 21.1078C44.734 21.2034 44.8378 21.2717 44.9549 21.3018C45.3002 21.3913 45.6312 21.5289 45.9382 21.7105C46.0424 21.7722 46.1641 21.7974 46.2841 21.7823C46.4042 21.7671 46.5158 21.7125 46.6015 21.6269L47.8567 20.3716L48.6284 21.1433L47.3731 22.3985C47.2874 22.4841 47.2327 22.5957 47.2176 22.7158C47.2024 22.836 47.2277 22.9577 47.2895 23.0618C47.4711 23.3688 47.6087 23.6998 47.6982 24.0451C47.7283 24.1622 47.7966 24.266 47.8922 24.3401C47.9877 24.4142 48.1052 24.4545 48.2262 24.4545H50V25.5455H48.2262C48.1052 25.5455 47.9877 25.5858 47.8922 25.6599C47.7966 25.734 47.7283 25.8378 47.6982 25.9549C47.6087 26.3002 47.4711 26.6312 47.2895 26.9382C47.2277 27.0423 47.2024 27.164 47.2176 27.2842C47.2327 27.4043 47.2874 27.5159 47.3731 27.6015L48.6284 28.8567L47.8567 29.6284L46.6015 28.3731C46.516 28.2873 46.4043 28.2325 46.2842 28.2174C46.164 28.2022 46.0423 28.2276 45.9382 28.2895C45.6312 28.4711 45.3002 28.6087 44.9549 28.6982C44.8378 28.7283 44.734 28.7966 44.6599 28.8921C44.5858 28.9877 44.5455 29.1052 44.5455 29.2262V31H43.4545ZM46.7273 25C46.7273 24.4606 46.5673 23.9333 46.2676 23.4848C45.968 23.0363 45.542 22.6867 45.0437 22.4803C44.5453 22.2739 43.997 22.2199 43.4679 22.3251C42.9389 22.4304 42.4529 22.6901 42.0715 23.0715C41.6901 23.4529 41.4304 23.9389 41.3251 24.4679C41.2199 24.997 41.2739 25.5453 41.4803 26.0437C41.6868 26.542 42.0363 26.968 42.4848 27.2676C42.9333 27.5673 43.4606 27.7273 44 27.7273C44.7231 27.7265 45.4163 27.4389 45.9276 26.9276C46.4389 26.4163 46.7265 25.7231 46.7273 25Z" fill="#0D519D"/>
</g>
<defs>
<clipPath id="clip0_302_2946">
<rect width="68" height="69" fill="white" transform="translate(0.5)"/>
</clipPath>
</defs>
</svg>
