<svg width="69" height="69" viewBox="0 0 69 69" fill="none" xmlns="http://www.w3.org/2000/svg">
<g clip-path="url(#clip0_302_2940)">
<ellipse opacity="0.25" cx="34.5" cy="34.5" rx="34" ry="34.5" fill="#5BA9FF" fill-opacity="0.57"/>
<path d="M28.3065 22.1392V20.5696C28.3065 19.7032 29.0001 19 29.8548 19H39.1452C39.9999 19 40.6935 19.7032 40.6935 20.5696V22.1392C40.6935 23.0057 39.9999 23.7089 39.1452 23.7089H29.8548C29.0001 23.7089 28.3065 23.0057 28.3065 22.1392ZM46.5 25.2785V45.6835C46.5 48.0694 44.5955 50 42.2419 50H26.7581C24.4045 50 22.5 48.0694 22.5 45.6835V25.2785C22.5 23.1595 24.0019 21.4015 25.9839 21.0405V22.1392C25.9839 24.3053 27.7181 26.0633 29.8548 26.0633H39.1452C41.2819 26.0633 43.0161 24.3053 43.0161 22.1392V21.0405C44.9981 21.4015 46.5 23.1595 46.5 25.2785ZM30.2419 34.6962C30.2419 35.3397 30.7684 35.8734 31.4032 35.8734H33.3387V37.8354C33.3387 38.479 33.8652 39.0127 34.5 39.0127C35.1348 39.0127 35.6613 38.479 35.6613 37.8354V35.8734H37.5968C38.2316 35.8734 38.7581 35.3397 38.7581 34.6962C38.7581 34.0527 38.2316 33.519 37.5968 33.519H35.6613V31.557C35.6613 30.9134 35.1348 30.3797 34.5 30.3797C33.8652 30.3797 33.3387 30.9134 33.3387 31.557V33.519H31.4032C30.7684 33.519 30.2419 34.0527 30.2419 34.6962ZM40.3065 44.1139C40.3065 43.4704 39.78 42.9367 39.1452 42.9367H29.8548C29.22 42.9367 28.6935 43.4704 28.6935 44.1139C28.6935 44.7575 29.22 45.2911 29.8548 45.2911H39.1452C39.78 45.2911 40.3065 44.7575 40.3065 44.1139Z" fill="#0D519D"/>
</g>
<defs>
<clipPath id="clip0_302_2940">
<rect width="68" height="69" fill="white" transform="translate(0.5)"/>
</clipPath>
</defs>
</svg>
