<svg width="69" height="69" viewBox="0 0 69 69" fill="none" xmlns="http://www.w3.org/2000/svg">
<g clip-path="url(#clip0_302_2922)">
<ellipse opacity="0.25" cx="34.5" cy="34.5" rx="34" ry="34.5" fill="#5BA9FF" fill-opacity="0.57"/>
<path d="M31.2996 29.8999L36.5996 24.5999C38.7996 22.4999 42.2996 22.4999 44.3996 24.5999C46.4996 26.6999 46.4996 30.1999 44.3996 32.3999L39.0996 37.6999L31.2996 29.8999ZM40.8996 28.7999C40.4996 29.1999 40.3996 29.7999 40.7996 30.1999C41.1996 30.5999 41.7996 30.6999 42.1996 30.2999L42.2996 30.1999C43.2996 29.1999 43.2996 27.5999 42.2996 26.6999C41.8996 26.2999 41.2996 26.2999 40.8996 26.6999C40.4996 27.0999 40.4996 27.6999 40.8996 28.0999C41.0996 28.2999 41.0996 28.6999 40.8996 28.7999ZM24.5996 36.5999L29.8996 31.2999L37.6996 39.0999L32.3996 44.3999C30.2996 46.4999 26.7996 46.4999 24.5996 44.3999C22.3996 42.2999 22.4996 38.7999 24.5996 36.5999Z" fill="#0D519D"/>
</g>
<defs>
<clipPath id="clip0_302_2922">
<rect width="68" height="69" fill="white" transform="translate(0.5)"/>
</clipPath>
</defs>
</svg>
