<svg width="52" height="52" viewBox="0 0 52 52" fill="none" xmlns="http://www.w3.org/2000/svg">
<g clip-path="url(#clip0_269_2929)">
<g clip-path="url(#clip1_269_2929)">
<path d="M25.835 50.8436C39.5585 50.8436 50.6836 39.7185 50.6836 25.995C50.6836 12.2715 39.5585 1.14638 25.835 1.14638C12.1115 1.14638 0.986355 12.2715 0.986355 25.995C0.986355 39.7185 12.1115 50.8436 25.835 50.8436Z" stroke="#C6C6C6" stroke-width="0.892765"/>
<path d="M24.8473 32.2032C22.7414 32.2032 20.722 31.3669 19.2327 29.8776C17.7438 28.3887 16.9072 26.369 16.9072 24.2635C16.9072 22.1576 17.7438 20.1379 19.2327 18.6489C20.722 17.16 22.7414 16.3234 24.8473 16.3234C26.9531 16.3234 28.9726 17.16 30.4618 18.6489C31.9508 20.1379 32.7874 22.1576 32.7874 24.2635C32.7874 26.369 31.9508 28.3887 30.4618 29.8776C28.9726 31.3669 26.9531 32.2032 24.8473 32.2032ZM24.8473 18.0876C23.2094 18.0876 21.6387 18.7383 20.4804 19.8965C19.3222 21.0547 18.6718 22.6255 18.6718 24.2633C18.6718 25.9013 19.3222 27.472 20.4804 28.6302C21.6386 29.7881 23.2094 30.4389 24.8473 30.4389C26.4852 30.4389 28.0559 29.7881 29.2141 28.6302C30.3723 27.4721 31.0228 25.9013 31.0228 24.2633C31.0228 22.6255 30.3723 21.0547 29.2141 19.8965C28.056 18.7383 26.4852 18.0876 24.8473 18.0876Z" fill="#212121"/>
<path d="M34.9591 35.7269C34.7255 35.7259 34.5019 35.6324 34.3373 35.4666L28.9996 30.1289C28.6547 29.784 28.655 29.2255 28.9999 28.8809C29.3446 28.5359 29.9033 28.5359 30.2483 28.8809L35.5859 34.2185C35.8404 34.4711 35.9167 34.852 35.7792 35.1831C35.6416 35.5139 35.3176 35.729 34.9591 35.7269Z" fill="#212121"/>
</g>
</g>
<defs>
<clipPath id="clip0_269_2929">
<rect width="50.59" height="50.6" fill="white" transform="translate(0.540039 0.699997)"/>
</clipPath>
<clipPath id="clip1_269_2929">
<rect width="50.59" height="50.59" fill="white" transform="translate(0.540039 0.699997)"/>
</clipPath>
</defs>
</svg>
