<svg width="69" height="69" viewBox="0 0 69 69" fill="none" xmlns="http://www.w3.org/2000/svg">
<g clip-path="url(#clip0_302_2943)">
<ellipse opacity="0.25" cx="34.5" cy="34.5" rx="34" ry="34.5" fill="#5BA9FF" fill-opacity="0.57"/>
<path d="M38.5 19.5L36 18.5L35.5 16.5H33V19L30.5 19.5L28 19L27 20L28 22L27 24.5L25 25V27.5H27L27.5 30L27 32.5L28.5 33.5L30.5 32.5L31 33.5L33 34L33.5 36H35L35.5 35L36.5 34L37.5 33H39.5L40.5 33.5L41 33L41.5 31.5L40.5 30.5L41.5 28.5V27.5H43.5L44 25L41.5 24.5L40.5 22L41.5 20L40.5 19L38.5 19.5Z" fill="#0D519D"/>
<path d="M47.5 53V47.5H45V46.5L51.5 40.5L52 35V30L49 31V34.5L48 38.5L46.5 41L44.5 41.5L42.5 41V40L44 38.5V35L38 40V46.5L36.5 48L36 53H47.5Z" fill="white"/>
<path d="M22 51.5V47.5H24.5L23.5 46.5L18 40.5L17.5 35V30L20.5 31V34.5L21.5 38.5L23 41L25 41.5L27 41V40L25.5 38.5V35L30.5 40.5L31.5 46.5L33 48L32.5 51.5H22Z" fill="white"/>
<path d="M31.5894 41.7665C31.5894 40.7452 31.2064 39.8025 30.517 39.017L25.7681 34.1465C25.5383 33.9108 25.1553 33.8323 24.8489 33.9108C24.5426 33.9894 24.2362 34.3036 24.1596 34.6964C24.0064 35.4819 23.6234 37.2102 24.0064 38.6242L24.083 38.7813L25.7681 40.5096L25.2319 40.5881C24.466 40.5881 23.7766 40.2739 23.2404 39.724L21.2489 37.6815V32.8896C21.2489 31.4756 20.4064 30.2187 19.1809 29.6688C18.5681 29.4331 17.8787 29.276 17.266 29.276H16.5V38.8599C16.5 39.6454 16.8064 40.3524 17.3426 40.9023L22.8574 46.5584V46.7941H20.7894V52.7643H33.3511V46.7941H31.5894V41.7665ZM18.3383 39.8811C18.1085 39.6454 17.9553 39.3312 17.9553 38.9384V31.0042C18.1085 31.0828 18.3383 31.0828 18.4915 31.1613C19.1809 31.4756 19.6404 32.1826 19.6404 32.8896V38.3885L22.0915 40.9023C22.934 41.7665 24.083 42.2378 25.2319 42.2378L27.1468 41.9236C27.4532 41.845 27.7596 41.6093 27.8362 41.2951C27.9128 40.9809 27.8362 40.5881 27.6064 40.3524L25.3085 37.9957C25.1553 37.3673 25.2319 36.6603 25.3085 36.0318L29.2915 40.1168C29.7511 40.5881 29.9809 41.138 29.9809 41.7665V46.9512H24.2362V46.7155C24.2362 46.2442 24.083 45.8514 23.7766 45.5372L18.3383 39.8811ZM31.7426 48.5223V51.3503H22.3213V48.5223H22.7809H31.5894H31.7426ZM49.7426 29.7473C48.517 30.2972 47.6745 31.5541 47.6745 32.9681V37.7601L45.683 39.8025C45.1468 40.3524 44.4574 40.6667 43.6915 40.6667L43.1553 40.5881L44.8404 38.8599L44.917 38.7028C45.3 37.2102 44.9936 35.5605 44.7638 34.6964C44.6872 34.3822 44.4574 34.0679 44.0745 33.9894C43.7681 33.9108 43.3851 33.9894 43.1553 34.225L38.4064 39.0955C37.717 39.8025 37.334 40.8238 37.334 41.845V47.0297H35.5723V53H48.134V47.0297H46.1426V46.7155L51.6574 41.0594C52.1936 40.5096 52.5 39.8025 52.5 39.017V29.3545H51.734C50.9681 29.3545 50.3553 29.5117 49.7426 29.7473ZM46.5255 48.5223V51.3503H37.1043V48.5223H37.334H46.1426H46.5255ZM50.8915 38.9384C50.8915 39.3312 50.7383 39.6454 50.5085 39.8811L44.9936 45.5372C44.6872 45.8514 44.534 46.2442 44.534 46.7155V46.9512H38.7894V41.7665C38.7894 41.138 39.0191 40.5881 39.4787 40.1168L43.4617 36.0318C43.5383 36.6603 43.6149 37.3673 43.4617 37.9957L41.1638 40.3524C40.934 40.5881 40.8574 40.9809 40.934 41.2951C41.0106 41.6093 41.317 41.845 41.6234 41.9236L43.4617 42.2378H43.6149C44.8404 42.2378 45.9128 41.7665 46.7553 40.9023L49.2064 38.3885V32.9681C49.2064 32.1826 49.666 31.4756 50.3553 31.2399C50.5085 31.1613 50.7383 31.0828 50.8915 31.0828V38.9384ZM34.6532 21.1847C31.8957 21.0276 29.5979 23.2271 29.4447 26.0552C29.3681 27.3906 29.8277 28.7261 30.7468 29.7473C31.666 30.7686 32.8915 31.3185 34.1936 31.397C34.2702 31.397 34.3468 31.397 34.4234 31.397C37.0277 31.397 39.2489 29.276 39.4021 26.5265C39.5553 23.6985 37.4106 21.3418 34.6532 21.1847ZM34.2702 29.8259C33.3511 29.7473 32.5085 29.3545 31.8957 28.6475C31.283 27.9405 30.9766 27.0764 30.9766 26.1337C31.0532 24.2484 32.5851 22.7558 34.4234 22.7558C34.5 22.7558 34.5766 22.7558 34.5766 22.7558C36.4915 22.8344 37.9468 24.484 37.8702 26.448C37.7936 28.4119 36.1851 29.9044 34.2702 29.8259Z" fill="#0D519D"/>
<path d="M44.4577 27.9406V24.4841L42.4662 24.0128C42.3131 23.3057 42.0067 22.6773 41.6237 21.9703L42.696 20.1635L40.245 17.7282L38.4833 18.828C37.8705 18.4352 37.1811 18.1996 36.4918 18.0425L36.0322 16H32.662L32.2024 18.0425C31.5131 18.1996 30.9003 18.5138 30.2109 18.9066L28.4492 17.8068L26.1514 20.3206L27.2237 22.1274C26.8407 22.7558 26.6109 23.4629 26.3811 24.1699L24.3896 24.6412V28.0977L26.3811 28.569C26.5343 29.276 26.8407 29.9045 27.2237 30.6115L26.1514 32.4183L28.6024 34.8535L30.3641 33.7537C30.9769 34.1465 31.6662 34.3822 32.3556 34.5393L32.8152 36.5818H36.1854L36.645 34.5393C37.3343 34.3822 37.9471 34.068 38.6365 33.6752L40.3982 34.775L42.7726 32.2612L41.7003 30.4544C42.0833 29.8259 42.3131 29.1189 42.4662 28.4119L44.4577 27.9406ZM41.1641 27.155L41.0875 27.6263C40.9343 28.4905 40.6279 29.276 40.1684 30.0616L39.9386 30.4544L40.8577 32.0255L40.1684 32.7325L38.6365 31.7898L38.2535 32.1041C37.5641 32.5754 36.7216 32.9682 35.9556 33.1253L35.496 33.2038L35.1131 35.0106H34.1173L33.6577 33.2038L33.1982 33.1253C32.3556 32.9682 31.5896 32.654 30.8237 32.1826L30.4407 31.9469L28.9088 32.8896L28.1428 32.1041L29.062 30.5329L28.7556 30.1402C28.296 29.4331 27.9131 28.569 27.7599 27.7835L27.6833 27.3121L25.9216 26.9193V25.8981L27.6833 25.4268L27.7599 24.9554C27.9131 24.0913 28.2194 23.3057 28.679 22.5202L28.9088 22.1274L27.9896 20.5563L28.679 19.8493L30.2109 20.7919L30.5939 20.4777C31.2833 20.0064 32.1258 19.6136 32.8918 19.4565L33.3514 19.3779L33.7343 17.5711H34.7301L35.1896 19.3779L35.6492 19.4565C36.4918 19.6136 37.2577 19.9278 38.0237 20.3992L38.4067 20.6348L39.9386 19.6922L40.6279 20.3992L39.7088 21.9703L40.0152 22.3631C40.4748 23.0701 40.8577 23.9342 41.0109 24.7198L41.0875 25.1911L42.8492 25.5839V26.6051L41.1641 27.155Z" fill="#0D519D"/>
<circle cx="34.5" cy="26" r="4" stroke="white" stroke-width="2"/>
</g>
<defs>
<clipPath id="clip0_302_2943">
<rect width="68" height="69" fill="white" transform="translate(0.5)"/>
</clipPath>
</defs>
</svg>
