<svg width="68" height="69" viewBox="0 0 68 69" fill="none" xmlns="http://www.w3.org/2000/svg">
<rect width="68" height="69" rx="34" fill="#E8F3FF"/>
<path d="M48.4516 49H19.5484V45.9474H21.0968V42.8947L21.6129 30.6842L18 27.1228L21.6129 20H47.4194L50 27.1228L46.3871 30.6842V44.9298L48.4516 45.9474V49Z" fill="#0D519D"/>
<path d="M49.9995 27.2337C49.9983 27.1055 49.9635 26.98 49.8987 26.8693L47.4856 19.9971C47.4345 19.8519 47.3394 19.726 47.2134 19.637C47.0875 19.5479 46.9368 19.5 46.7824 19.5H22.0084C21.8661 19.5 21.7268 19.5406 21.6069 19.617C21.4871 19.6934 21.3917 19.8024 21.3321 19.9311L18.1506 26.7959C18.0557 26.9209 18.0033 27.0728 18.0007 27.2295L18 27.2838C18 29.016 19.2966 30.4878 21.092 31.0182V45.0677H20.7087C19.9269 45.0677 19.2909 45.7015 19.2909 46.4806V48.0871C19.2909 48.8662 19.9269 49.5 20.7087 49.5H47.2913C48.0733 49.5 48.7093 48.8662 48.7093 48.0871V46.4806C48.7093 45.7015 48.0733 45.0677 47.2913 45.0677H46.908V31.0181C48.6957 30.4896 49.9889 29.0268 50 27.2975V27.2719L49.9995 27.2337ZM46.2538 20.9845L48.1907 26.5H42.2648L41.4513 20.9845H46.2538ZM34.7449 20.9845H39.9455L40.759 26.5H34.7449V20.9845ZM40.7403 28.0261C40.3471 29.0228 39.1838 29.7472 37.8139 29.7472C36.444 29.7472 35.2859 29.0262 34.8899 28.0261H40.7403ZM28.7786 20.9845H33.2551V26.5H27.3455L28.7786 20.9845ZM33.1261 27.9912C32.7467 29.0058 31.5723 29.7472 30.1864 29.7472C28.811 29.7472 27.644 29.0171 27.2551 28.0215L33.1261 27.9912ZM22.4848 20.9845H27.2395L25.8065 26.5H19.9286L22.4848 20.9845ZM19.6137 27.9847H25.501C25.1242 29.0026 23.9477 29.7472 22.5588 29.7472C21.1698 29.7472 19.9878 28.9992 19.6137 27.9847ZM47.2195 48.0155H20.7807V46.5522H47.2195V48.0155ZM31.6659 45.0677H27.1173V36.1929H31.6659V45.0677ZM33.1557 45.0677V35.9146C33.1557 35.2495 32.6129 34.7084 31.9453 34.7084H26.8381C26.1705 34.7084 25.6277 35.2495 25.6277 35.9146V45.0677H22.5819V31.2312C24.1649 31.2243 25.5598 30.5157 26.3713 29.4429C27.1863 30.5193 28.5922 31.2318 30.1864 31.2318C31.7807 31.2318 33.1863 30.5193 34.0013 29.4461C34.8168 30.5209 36.2212 31.2318 37.814 31.2318C39.4068 31.2318 40.8125 30.5202 41.6277 29.4444C42.4389 30.5149 43.8344 31.2241 45.4183 31.2311V45.0676L33.1557 45.0677ZM46.1643 29.6775L46.1631 29.6774C46.0856 29.6774 46.0124 29.6925 45.9422 29.7144C45.7762 29.7363 45.6089 29.7473 45.4415 29.7472C44.0715 29.7472 42.9081 29.0228 42.5148 28.0261H48.3679C48.0461 28.8417 47.2086 29.4742 46.1643 29.6775ZM41.8005 34.7083H36.6876C36.0216 34.7083 35.4799 35.2483 35.4799 35.9119V40.3735C35.4799 41.0371 36.0216 41.577 36.6876 41.577H41.8005C42.4665 41.577 43.0082 41.0372 43.0082 40.3735V35.9119C43.0082 35.2483 42.4665 34.7083 41.8005 34.7083ZM41.5185 40.0924H36.9696V36.1929H41.5185V40.0924Z" fill="#E8F3FF"/>
</svg>
